/* XPM */
static char *b949cee5af1d49ad9e4e95b6900e8250[] = {
/* columns rows colors chars-per-pixel */
"64 64 179 2 ",
"   c #000200",
".  c #030D00",
"X  c #051200",
"o  c #061900",
"O  c #091C01",
"+  c #0B2400",
"@  c #0D2B00",
"#  c #102B05",
"$  c #0E3500",
"%  c #0F3B00",
"&  c #103500",
"*  c #133C00",
"=  c #193D08",
"-  c #164400",
";  c #184403",
":  c #174B00",
">  c #194D00",
",  c #1E4C09",
"<  c #1B5400",
"1  c #1E5A00",
"2  c #224C0D",
"3  c #205208",
"4  c #275B0D",
"5  c #285B10",
"6  c #1E6100",
"7  c #1F6A00",
"8  c #216400",
"9  c #236B00",
"0  c #296E04",
"q  c #296E08",
"w  c #257200",
"e  c #277901",
"r  c #297B01",
"t  c #2D730A",
"y  c #31760D",
"u  c #2E6A10",
"i  c #357715",
"p  c #367B14",
"a  c #387D14",
"s  c #4E7F33",
"d  c #2A8500",
"f  c #2C8A00",
"g  c #36830F",
"h  c #358D09",
"j  c #2F9000",
"k  c #319500",
"l  c #339A01",
"z  c #3C9F0D",
"x  c #3B8D11",
"c  c #3D8718",
"v  c #3F9215",
"b  c #34A400",
"n  c #38A702",
"m  c #36A900",
"M  c #39AC01",
"N  c #3DA20B",
"B  c #3EAA0A",
"V  c #3BB401",
"C  c #37B900",
"Z  c #3DBB00",
"A  c #40801D",
"S  c #429F14",
"D  c #409019",
"F  c #44AF0C",
"G  c #40BF02",
"H  c #45B30F",
"J  c #47BD0D",
"K  c #43A313",
"L  c #47BA11",
"P  c #4ABB14",
"I  c #4EB11C",
"U  c #4EB919",
"Y  c #4A872A",
"T  c #479123",
"R  c #4B9126",
"E  c #4F992B",
"W  c #50912F",
"Q  c #4E8033",
"!  c #4E8A31",
"~  c #508834",
"^  c #529633",
"/  c #54AB29",
"(  c #5AB52F",
")  c #5BBF2A",
"_  c #58A234",
"`  c #5CBA30",
"'  c #41C301",
"]  c #43CC01",
"[  c #48C50B",
"{  c #46D401",
"}  c #49D704",
"|  c #49DB01",
" . c #4CD30A",
".. c #4EDD08",
"X. c #51DC0C",
"o. c #4ECA11",
"O. c #51C11C",
"+. c #56CC1A",
"@. c #58C91D",
"#. c #53D312",
"$. c #54DC11",
"%. c #56D11B",
"&. c #5AD31B",
"*. c #5BDC1A",
"=. c #4CE103",
"-. c #4DEB00",
";. c #51E906",
":. c #53E30C",
">. c #55EE0B",
",. c #59EC0F",
"<. c #4FFB00",
"1. c #50F101",
"2. c #56FD02",
"3. c #5AFD06",
"4. c #56F20A",
"5. c #58F709",
"6. c #5CFD0B",
"7. c #5AE716",
"8. c #5AED13",
"9. c #5CE41A",
"0. c #5DF114",
"q. c #61FF0F",
"w. c #62FE13",
"e. c #64F51C",
"r. c #66FF1B",
"t. c #69FE1C",
"y. c #5EC92B",
"u. c #61CA2F",
"i. c #64D32C",
"p. c #65C236",
"a. c #6DCF3D",
"s. c #6ED13E",
"d. c #64EC21",
"f. c #64E129",
"g. c #69E72E",
"h. c #6EED2D",
"j. c #69F423",
"k. c #6CFD23",
"l. c #6EF42C",
"z. c #6CF82A",
"x. c #71FF25",
"c. c #72FE2B",
"v. c #6FE537",
"b. c #70E436",
"n. c #74E03E",
"m. c #74EB3A",
"M. c #70F130",
"N. c #77FE33",
"B. c #79FF35",
"V. c #7CF53F",
"C. c #7DFE3B",
"Z. c #6FCA42",
"A. c #73D344",
"S. c #77E043",
"D. c #7BE945",
"F. c #7FE44E",
"G. c #7FEE48",
"H. c #7EF543",
"J. c #7FFE40",
"K. c #81FF3D",
"L. c #82FF43",
"P. c #88FF46",
"I. c #84F74A",
"U. c #86FE4A",
"Y. c #89FF4D",
"T. c #87F650",
"R. c #8DFE54",
"E. c #8FFE58",
"W. c #94FF57",
"Q. c #92FF5B",
"!. c #96FF62",
"~. c #9AFF65",
"^. c #9DFF6B",
"/. c #A0FF66",
"(. c #A2FF73",
"). c #A6FF79",
"_. c #A9FF7C",
"`. c #ADFF80",
"'. c None",
/* pixels */
"'.'.'.'.'.'.                                                                                                        '.'.'.'.'.'.",
"'.'.'.'.                                                                                                                '.'.'.'.",
"'.'.'.                                                                                                                    '.'.'.",
"'.'.                                                                                                                        '.'.",
"'.                                                                                                                            '.",
"'.                                                                                            .                               '.",
"                                                                .                             . .                               ",
"                                                        .     .         .                       o .                             ",
"                                                          . .   .     . .             .         X @                             ",
"                                          .     .   . .       .   . .       .   .               O -                             ",
"                              .       .       .   .     . .       .   .             .       .   + 1                             ",
"                              .           . .                     . 2 g H ..:.$.F -     .       @ > O                           ",
"                              .     .         % w d m m b V { *.c.K.C.B.c.t.q.6.6.6.V   .   .   * > @                           ",
"                              X X       8 ' ' ] 0.x.q.&.i.a.n.S.A.A.b.K.P.U.B.w.1.} { { + .     > > -                           ",
"                              O O   8 5.w.] 7.c.c o                     + > h #.r.w.X.V V @     < < 1                           ",
"                              @ o b -.q.6.r.[ + .   . . . . . . . . . . . . .   X 9 o.x.=.] : X < 1 w                           ",
"                              & N V 2.z.q.M o . .   . . . . . . . . . . . . . . . .   @ @.5.| r 1 1 l                           ",
"                      .   . @ & e.{ c.r.Z X   . . . . . . . . . . . . X . . . . . . .     g ;.} G w '     . .                   ",
"                            < K 7.r.C.{ X . . . . . . . . . X . . . . . . . X . .   . . .   S m V +.k 8       .                 ",
"                          : $ c.k.L.6.@ . . . . . X . . . . . X . X . X . . . . . . . . . .   $.G +.f Z   .                     ",
"                        + 9 q B.U.q.1 . . . . . . X . X X X X X X X X . X . X . . . X . . . . + q.m i.] @                       ",
"                    . . r - I U.e.N   . . . . . . . X . X . X . X X X X X . . X X . . . . . . . z 0.h.B m   .                   ",
"                  .   1 < % C.W.>.  . . . . . . X X X X X X X X X . X X X X . X X . . . . . . . . t.c.V.| +     .               ",
"                    X w : D L.K., . . . . X . . . X . . X X X X X X X X X X X X . X X X . . . . . x j.P.H.l   .                 ",
"                    : 1 : N.Q.U   . . . . . X X X X X X X X X X X X X X X X X X X . X X . . . . .   k.Q.B.P.X   .               ",
"              .     w 1 U C.Y.. . . . . . X X . X X X X X X o X X X X X X X X X X X X . X . X . . . i Y.R.J._   .     .         ",
"                  o r r B.Q.p . . . . . . . X X X X X X X X X X X X X X X X X X X X X X X . X . . . @ E.Q.B.W.$                 ",
"              .   & 9 9.Y.R.  . . . . . X X . X X X X X X X X X X o X X X X X X X X X . X . . . . . . g.E.E.B.f.  .             ",
"                . < k M.Y.W   . . . . X X . X X X X X X X X X X X o o X X X X X X X X X X . . X . . . N R.Q.U.L.% .             ",
"                  8 m C.!.= . . . . . X X X X X X X X X X X o X X X X X X o X X X X X X X X X . . . . 7 C.E.E.E.e   .           ",
"              .   w M U./.  . . . . . X . . X X X X X X o o X X X X o X X X X X X X X X X . . . . . . : j.U.Q.E.D   .           ",
"                  d P U.W.  . . . . X O X X X X X X X X X o X o X X X X o o o X X X X X X X X X . . . * 9.B.E.Q.Y               ",
"                  f +.L.Q.  . . . . & . X X X X X X X X X o o X O X O X X O X X X X X X X . X . . . . + X.c.R.Q.a   .           ",
"              .   f d.L.^.  .   .   8 . X X X X X X X X X X X X X X X X X X X X X X X X X X . X X . . X  .k.R.U.2               ",
"                . d x.B.^.$ . . .   0 & X X X X X X X X X X X o X X X X X X O X X X X X X . X . . . . . ] r.Q.c.. .   .         ",
"          .   . o f x.k.^.4 . . . . 9 8   X X X X X X O X X X X O X X O X X X o X X X X X X X . . . .    .k.W.$.                ",
"          .     @ d k.6.~.T . . . . d 0   X X X X X X O X o o o X X O X O X X X X X X X X X X . . . . . q.M.R.l   . .           ",
"                - f M.<.~.s.  . .   k w   X X X X X X o o X X X X X o X X X X X X X X X X X X . X . . 1 >.T.J.:                 ",
"                : f y.q.C.~.. . .   G 1 . X X X X X X X X X X X X X O X X O X X . X X X X . X . . .   9. .!.*.. .   .           ",
"                - d b R.r.).K   . * n % X X X X X X X X X X o X X O X X X X X X X X X X X X X . . . y | I.V.1 .   .             ",
"                @ e l ,.E.C.F.;   l k + . X X X X X X X X X X X X X X X X X X X X X X X X . . . . # q.H ~.$.  .   . .           ",
"                  > k | c.Y.).B . ] f % . X X X X X X X X X X X X X X X X X X X X X X X X . . X   e.C !.Q.%                     ",
"                    : ] r.B.~.~.F d f : . X X . X X X X X X X X X X X X X X X X X . . X X . .   y.j.i.(.p.    . .   .           ",
"                      O } k.L.).!.w l 1 . . . X . X X X X X X X X o X X X X X X X X X . . . . t K.] ^.^.2 . .                   ",
"                .     .   9 ,.Q.(.) n 9   . . X X X . X X X X X X X X X X X X . X . . . X . O q.t.m.).I.  .     .               ",
"                    .     . O N _.^. .r . X . . . X X . X . X X X X X X X . X . . X X . .   #.$.B.(.Q.R   .   .                 ",
"                    .   .   . X Z._.!.J   . . . . . . X . X . X X . X X X X X X . . . . . 3 } C.^.(.L.#                         ",
"                        .     . 4 Q.)./.p   . . X . . . X . X X X X X . . . . . . X . .   X.g./.).U.0.  .   . .                 ",
"                        .     .   j.l.).^.@.#   . . . . . . . . . . . . X . . . . . . . < z.(.(.~.4.0     .                     ",
"                          . .     1 :.$.).~.6.F O . . . . . X . X . X . . . . . . . .   v.).^.~.k.|   . .                       ",
"                        .     .     m Z H ^.(.} 3.u   . . . . . . . . . . . . . .   . Z.).!.!.B.2.$     .                       ",
"                                .     9 ' B U._.D.e.u.- + .     . . . . .       $ E (.(.!.Q.Q.j.* .   .                         ",
"                              .     .   O M k.E.~.).^.E.g.l.g.( ! ~ s s ^ ` m.~.`.(.!.!.!.Q.I X .       .                       ",
"                                .     .   . @ K J.~.~.^.(.).).(.(.(.(.(.(.).(.~.!.~.Q.Y.C.d .   .     .                         ",
"                                .     . .   . . @ m r.j.!.J.J.C.J.J.C.J.Y.P.D.O./ %. .Z *     .                                 ",
"                                          .   .   . O r :.k.6.6.6.,. .;.G ;   . X .       .                                     ",
"                                          .       . .   . S e.3.] V j @     .   .         . .                                   ",
"                                            .           .             .   .   .   . .                                           ",
"'.                                          .     .   .       .   .       .   .                                               '.",
"'.                                                      .   .       .             .                                           '.",
"'.'.                                                      .       .       .                                                 '.'.",
"'.'.'.                                                                                                                    '.'.'.",
"'.'.'.'.                                                                                                                '.'.'.'.",
"'.'.'.'.'.'.                                                                                                        '.'.'.'.'.'."
};
