/* XPM */
static char *_b0b1705e00a48529dfb896de14dc890[] = {
/* columns rows colors chars-per-pixel */
"32 32 223 2 ",
"   c black",
".  c #000100",
"X  c #000200",
"o  c #010200",
"O  c #000300",
"+  c #010300",
"@  c #000400",
"#  c #010400",
"$  c #000500",
"%  c #010500",
"&  c #000600",
"*  c #010600",
"=  c #010700",
"-  c #020600",
";  c #020700",
":  c #010800",
">  c #020800",
",  c #020900",
"<  c #020A00",
"1  c #030A00",
"2  c #020B00",
"3  c #030B00",
"4  c #030C00",
"5  c #020D00",
"6  c #030D00",
"7  c #030F00",
"8  c #040D00",
"9  c #040E00",
"0  c #050E00",
"q  c #040F00",
"w  c #050F00",
"e  c #041000",
"r  c #051000",
"t  c #051100",
"y  c #051200",
"u  c #051300",
"i  c #061300",
"p  c #011600",
"a  c #061400",
"s  c #051800",
"d  c #061F00",
"f  c #081A00",
"g  c #081E00",
"h  c #0C1E04",
"j  c #072700",
"k  c #0B2301",
"l  c #0C2103",
"z  c #0D2A00",
"x  c #092D00",
"c  c #0E2C00",
"v  c #0E2E00",
"b  c #0F2F00",
"n  c #0F2D02",
"m  c #0E2009",
"M  c #132F05",
"N  c #0F3000",
"B  c #103000",
"V  c #103300",
"C  c #133503",
"Z  c #133004",
"A  c #133900",
"S  c #133B00",
"D  c #133C00",
"F  c #163B07",
"G  c #1B3B0C",
"H  c #124000",
"J  c #134000",
"K  c #164300",
"L  c #134600",
"P  c #154500",
"I  c #184701",
"U  c #1A4107",
"Y  c #174800",
"T  c #184A01",
"R  c #194903",
"E  c #184D01",
"W  c #1F420F",
"Q  c #1A5000",
"!  c #1A5500",
"~  c #1C5700",
"^  c #1F5106",
"/  c #1D5900",
"(  c #1D5801",
")  c #1D5A00",
"_  c #1A5C00",
"`  c #1E5C00",
"'  c #1F5D00",
"]  c #1E5E00",
"[  c #205505",
"{  c #235F04",
"}  c #206400",
"|  c #226500",
" . c #236C00",
".. c #2A660A",
"X. c #2A640E",
"o. c #227000",
"O. c #257100",
"+. c #277500",
"@. c #277700",
"#. c #2A7206",
"$. c #287900",
"%. c #2F6814",
"&. c #4E7E30",
"*. c #4E7F30",
"=. c #2E8E00",
"-. c #2F8E00",
";. c #328208",
":. c #2D9000",
">. c #2F9900",
",. c #329004",
"<. c #379309",
"1. c #37910A",
"2. c #3B8813",
"3. c #398E10",
"4. c #3E9812",
"5. c #36A400",
"6. c #37A502",
"7. c #37AE00",
"8. c #3EA60B",
"9. c #3EA60D",
"0. c #40A30D",
"q. c #47BD0B",
"w. c #43A713",
"e. c #4AB116",
"r. c #428721",
"t. c #52B920",
"y. c #5FA73C",
"u. c #61BB34",
"i. c #63BE37",
"p. c #66B73D",
"a. c #3EC300",
"s. c #4CCA0F",
"d. c #47D600",
"f. c #4CD20A",
"g. c #51DE0B",
"h. c #4DC116",
"j. c #4ECA11",
"k. c #51CE10",
"l. c #54C41F",
"z. c #55CA1A",
"x. c #54D118",
"c. c #57D41A",
"v. c #58D51E",
"b. c #4EE305",
"n. c #52E20B",
"m. c #56FA04",
"M. c #59F00F",
"N. c #5CF90E",
"B. c #5AE613",
"V. c #5AE217",
"C. c #5AE01B",
"Z. c #61F617",
"A. c #62FF13",
"S. c #69FF1A",
"D. c #68FE1D",
"F. c #6DFF1F",
"G. c #5AC227",
"H. c #5BCA23",
"J. c #60CA2A",
"K. c #65D12F",
"L. c #62DC28",
"P. c #63DC28",
"I. c #6BD336",
"U. c #6AD935",
"Y. c #67F420",
"T. c #68F323",
"R. c #68F721",
"E. c #6CFF21",
"W. c #6DFF21",
"Q. c #6DFF24",
"!. c #6EFC27",
"~. c #6FFF26",
"^. c #6DF12E",
"/. c #73FF26",
"(. c #70F82C",
"). c #74FF2E",
"_. c #76EB3C",
"`. c #71F331",
"'. c #71F232",
"]. c #7CFF37",
"[. c #7BFF39",
"{. c #7DFA3F",
"}. c #73BE4E",
"|. c #7AD54C",
" X c #7FC55A",
".X c #7ECB58",
"XX c #7EF242",
"oX c #85FF3D",
"OX c #85FF3E",
"+X c #84DD5A",
"@X c #80F545",
"#X c #85FF40",
"$X c #84FF46",
"%X c #89FF46",
"&X c #8AFF46",
"*X c #8BFF49",
"=X c #91FF4E",
"-X c #84E355",
";X c #8BFF53",
":X c #8DFF54",
">X c #8BF258",
",X c #8BF459",
"<X c #8EF859",
"1X c #91FF53",
"2X c #90FF54",
"3X c #93FF58",
"4X c #94FF59",
"5X c #93FD5D",
"6X c #95FF5E",
"7X c #95FF5F",
"8X c #99FF58",
"9X c #9DFF67",
"0X c #9FFF66",
"qX c #9BFF69",
"wX c #9CFE68",
"eX c #9DF86C",
"rX c #9EFF6C",
"tX c #A1FF6E",
"yX c #A4FF6F",
"uX c #A0FF71",
"iX c #A4FF77",
"pX c #ABFF7A",
"aX c None",
/* pixels */
"aXaXaX                                                    aXaXaX",
"aX                                                            aX",
"aX                        ;           ;       ;               aX",
"                        ;     ; ;   ;     ;     q               ",
"                    ; ; ; ; ; - ; ; ; ; ;       c               ",
"              ;   ; ;             M { #.C   ;   P ;             ",
"              4 >   T  .k.n.v.(.%XoXoXS.m.6.    Q f             ",
"          ;   u c b.N.h.h           p [ 0.B.7.; / V ;           ",
"            ; s f.W.6.  1 1 q 1 1 q 1 q 1   4.d.O.] ;           ",
"          ; 7 3.!.j.  4 q q q q q q q q q q   1.s.:.    ;       ",
"            ~ J.Y.4 4 q q 0 u q 0 r r 0 q 1 1   g.c.V ;   ;     ",
"      ; ; D Y =XY 4 q q r 0 q u r r r r q q q q ..[.9.  ;       ",
"    ;     ] l.u.  q q 0 r r u u a u u u q q q 1   _.%Xm ; ;     ",
"        u ,.8Xu 4 q q q a r a a a a u u u u q q > r.;XK.        ",
"      ; c x.p.; q q q u u r a a a a r r u q u q q H 3X2Xj ;   ; ",
"    ;   S P.&.4 q u q u u r a a a a a a u u q q q g ).5XW ;     ",
"  ;   ; H '.&.4 - V r r u a a a a a a a u u u u q ; Z.4XM ;     ",
"      ; L /.y.;   | q r u a a a a a a a u u q 0 q   M.#X  ;     ",
"        _ A.-X    -.o r u u a a a a a r a u q q q u /.G.  ;     ",
"         .P.1Xd q -.q q u u a a a a a a r r 0 u - 1.XXE ; ;   ; ",
"      ; S a.$Xi.( / q u u u q r r a r a u u r 0 U C.I.  ;       ",
"          P F.rXw.$.1 q q u r r a r r r r q q r T.qXG ;   ;     ",
"      ; ; ; 4 e.eX>.; q q u q u u r r q r q   q.XX,X  ; ;       ",
"          ; ;   |.5X> 1 q q q u u q r u q q R '.uX2.; ;   ;     ",
"          ; ; ; ^ ^.wX@.  q q q q 4 q q >   U.iXE.q ; ;         ",
"        ;     ;   @.z.<XV.F     ; ;     c }.qX*X~ ;   ;         ",
"          ;   ; ;   N t.yXtX:X,X.X X+X0XpX7XXXk   ;             ",
"                  ; ;   x 9.].D.Q.Y.H.%.X.} ; ; ;               ",
"                  ; ; ; ;   l ;./ z   ; ; ;       ;             ",
"aX                ;     ;   ; ; ; ;   ; ;     ;               aX",
"aX                          ;     ; ;   ;                     aX",
"aXaXaX                        ;                           aXaXaX"
};
