/* XPM */
static char *_b4836ed656742e9a6f29be41cfeab49[] = {
/* columns rows colors chars-per-pixel */
"16 16 85 1 ",
"  c black",
". c #000100",
"X c #010101",
"o c #000200",
"O c #010200",
"+ c #000300",
"@ c #010300",
"# c #010400",
"$ c #010500",
"% c #020800",
"& c #030B00",
"* c #030D00",
"= c #000F00",
"- c #040D00",
"; c #040E00",
": c #040F00",
"> c #050F00",
", c #031200",
"< c #051000",
"1 c #051100",
"2 c #051200",
"3 c #061200",
"4 c #061300",
"5 c #061400",
"6 c #051800",
"7 c #061800",
"8 c #061900",
"9 c #051C00",
"0 c #081F00",
"q c #0A2100",
"w c #0B2002",
"e c #0C2301",
"r c #0E2A00",
"t c #0D2C00",
"y c #162C0D",
"u c #0F3600",
"i c #103200",
"p c #113202",
"a c #133C00",
"s c #1B3D0C",
"d c #1D3C0E",
"f c #134000",
"g c #164500",
"h c #144900",
"j c #1B4C04",
"k c #1A5300",
"l c #1B5300",
"z c #2A471B",
"x c #2B4A1C",
"c c #2B5816",
"v c #276B06",
"b c #237100",
"n c #2F7E08",
"m c #307F08",
"M c #487E2D",
"N c #308E03",
"B c #388E0F",
"V c #369208",
"C c #378015",
"Z c #40B00B",
"A c #41B20C",
"S c #46A816",
"D c #49A41A",
"F c #4C8D26",
"G c #50A522",
"H c #5FB631",
"J c #5FDF1E",
"K c #56EC0A",
"L c #6CFF1E",
"P c #62D62A",
"I c #67D92F",
"U c #6ACA39",
"Y c #6EC343",
"T c #6DC440",
"R c #78DB45",
"E c #7BE842",
"W c #83FF35",
"Q c #82F946",
"! c #8FFF48",
"~ c #86EE52",
"^ c #8CF855",
"/ c #90FF50",
"( c #9DFF5A",
") c #A1FF67",
"_ c None",
/* pixels */
"_              _",
"      #  #  #   ",
"         u  w   ",
"   %aZmCFDK8g   ",
"   wL8*;1% VN   ",
"  ;Gj;1111; Jt# ",
" #uH 1111111cU  ",
"  Bx1115551*,(,#",
"  Szr*555511 W  ",
"  AMk#155511wP  ",
"  h/b%11111 Id# ",
"  #9^ 1111;n~ # ",
"   #vEf   y)k#  ",
"   # pT!QRTs #  ",
"    ## e8  #    ",
"_      #  #    _"
};
